<?xml version="1.0" encoding="UTF-8" standalone="no"?>
<!DOCTYPE svg PUBLIC "-//W3C//DTD SVG 1.1//EN" "http://www.w3.org/Graphics/SVG/1.1/DTD/svg11.dtd">
<svg version="1.1" xmlns="http://www.w3.org/2000/svg" xmlns:xlink="http://www.w3.org/1999/xlink" preserveAspectRatio="xMidYMid meet" viewBox="0 0 155 55" width="155" height="55"><defs><path d="M26.12 13.77C25.94 16.51 26.09 22.35 29.43 28.41C34.55 28.93 39.24 30.55 43.14 32.95C43.25 32.15 43.31 31.34 43.31 30.52C43.31 21.26 35.81 13.76 26.55 13.76C26.41 13.76 26.26 13.77 26.12 13.77ZM9.8 30.52C9.8 31.05 9.82 31.57 9.87 32.09C13.26 30.27 17.17 29.01 21.38 28.49C23.69 22.05 22.55 16.98 21.64 14.49C14.78 16.59 9.8 22.97 9.8 30.52ZM23.79 28.28C24.44 28.24 25.1 28.22 25.77 28.22C26.22 28.22 26.66 28.23 27.11 28.25C26.3 26.74 25.63 25.24 25.1 23.79C24.79 25.22 24.37 26.73 23.79 28.28ZM22.93 30.36C21.17 34.19 18.41 38.15 14.09 41.71C17.15 45.13 21.6 47.28 26.55 47.28C32 47.28 36.84 44.67 39.9 40.64C34.44 37.99 30.72 34.11 28.18 30.08C27.95 30.07 27.72 30.07 27.48 30.07C25.93 30.07 24.41 30.17 22.93 30.36ZM40.62 39.62C41.75 37.88 42.57 35.91 42.99 33.8C39.33 31.86 35.08 30.59 30.51 30.2C32.69 33.51 35.9 36.81 40.62 39.62ZM10.34 34.74C10.91 36.94 11.92 38.97 13.26 40.72C16.71 37.23 18.98 33.88 20.43 30.78C16.71 31.55 13.3 32.92 10.34 34.74Z" id="a6UXFBrz9j"></path><path d="M95.91 13.35L100.05 13.35L100.05 26.54C102.21 26.54 103.41 26.54 103.65 26.54C108.34 26.54 110.38 28.83 111.12 29.09C113.92 31.64 113.89 35.48 114.2 36.19C114.2 39.09 113.19 40.95 113.08 41.48C111.97 43.87 110.13 44.9 109.8 45.28C108.37 46.22 106.65 46.69 104.63 46.69L95.91 46.69L95.91 13.35ZM100.05 45.26C101.71 45.26 102.63 45.26 102.81 45.26C104.7 45.26 105.82 44.36 106.16 44.26C107.64 43.25 108.21 41.73 108.43 41.45C109.23 39.63 109.21 37.64 109.3 37.22C109.3 33.46 107.74 31.4 107.57 30.75C106.43 28.94 104.59 28.04 102.06 28.04L100.05 28.04L100.05 45.26Z" id="b3RJMtgYiS"></path><path d="M45.06 15.74L63.25 15.74L63.25 17.7L57.09 17.7L57.09 46.69L51.21 46.69L51.21 17.7L45.06 17.79L45.06 15.74Z" id="bbde5vpu0"></path><path d="M59.54 26.05C64.79 26.05 67.7 26.05 68.29 26.05C71.01 26.05 72.4 27.5 72.86 27.66C74.72 29.25 74.54 31.42 74.72 31.83C74.72 33.77 73.69 34.56 73.58 34.87C72.82 35.58 71.74 36.17 70.34 36.62L75.91 46.69L70.9 46.69C67.8 40.48 66.09 37.03 65.74 36.34C66.12 36.34 66.27 36.42 66.33 36.43C68.26 36.36 69.03 35.25 69.34 35.12C70.43 33.86 70.32 32.16 70.43 31.83C70.43 29.95 69.32 29.08 69.2 28.78C68.39 27.99 67.33 27.59 66.02 27.59L63.78 27.59L63.78 46.69L59.54 46.69L59.54 26.05Z" id="b4TWNHvIOb"></path><path d="M77.29 46.69C80.13 36.22 81.71 30.41 82.03 29.25C82.68 27.12 83.39 26.62 83.54 26.33C84.43 25.54 85.71 25.62 85.95 25.54C87.14 25.54 87.62 25.83 87.81 25.86C88.51 26.17 88.88 26.93 89 27.05C89.34 27.63 89.66 28.46 89.96 29.55L95.11 46.69L90.54 46.69L88.77 40.44L80.93 40.44L79.25 46.69L77.29 46.69ZM88.18 38.39C86.65 32.9 85.79 29.86 85.62 29.25C85.43 28.71 85.32 28.64 85.29 28.57C85.15 28.41 84.89 28.42 84.85 28.41C84.5 28.41 84.41 28.59 84.36 28.62C84.28 28.76 84.19 29 84.08 29.36L81.61 38.39L88.18 38.39Z" id="bdLYAaZTM"></path><path d="M115.61 26.05L119.9 26.05C119.9 34.97 119.9 39.92 119.9 40.91C119.9 42.54 120.83 43.43 120.93 43.71C121.98 44.85 123.62 44.8 123.92 44.92C126.06 44.92 127 43.66 127.34 43.52C128.22 42.57 128.65 41.18 128.65 39.35L128.65 26.05L130.61 26.05C130.61 34.69 130.61 39.48 130.61 40.44C130.61 42.49 129.79 43.7 129.7 44.06C128.79 45.62 127.39 46.22 127.13 46.46C125.48 47.28 123.54 47.19 123.15 47.28C120.77 47.21 119.49 46.54 119.09 46.46C117.41 45.69 116.76 44.36 116.5 44.13C115.91 43.07 115.61 41.78 115.61 40.26L115.61 26.05Z" id="a9KWi5EgC"></path><path d="M143.45 27.82C141.19 27.59 140.26 27.61 139.91 27.59C138.02 27.59 137.26 28.18 136.97 28.24C135.92 28.87 135.75 30.24 135.62 30.46C135.78 32.18 137.84 33.08 138.09 33.37C140.77 34.87 141.59 35.43 141.98 35.66C143.22 36.45 143.98 37.63 144.2 37.85C145.2 39.25 145.1 40.96 145.2 41.3C145.13 44.29 143.06 45.08 142.82 45.5C140.51 46.69 137.83 46.57 137.27 46.69C135.05 46.69 133.33 46.5 132.12 46.11C132.12 45.34 132.12 44.91 132.12 44.83C132.54 44.87 133.8 44.99 133.98 45.01C135.45 45.15 135.83 45.2 136.04 45.22C138.6 45.11 139.37 44.45 139.74 44.36C140.91 43.59 140.79 42.24 140.91 42C140.91 40.53 139.88 39.86 139.77 39.63C138.65 38.72 136.68 37.71 136.34 37.5C134.05 36.27 133.21 35.32 132.86 35.08C131.7 33.86 131.81 32.24 131.7 31.93C131.7 29.04 133.63 27.98 133.84 27.54C136.01 26.05 138.52 26.2 139.04 26.05C140.12 26.05 140.91 26.13 141.12 26.14C141.8 26.19 142.58 26.26 143.45 26.35C143.45 27.24 143.45 27.73 143.45 27.82Z" id="bXC6gLy5w"></path></defs><g><g><g><use xlink:href="#a6UXFBrz9j" opacity="1" fill="#ffffff" fill-opacity="1"></use><g><use xlink:href="#a6UXFBrz9j" opacity="1" fill-opacity="0" stroke="#000000" stroke-width="0.02" stroke-opacity="0"></use></g></g><g><use xlink:href="#b3RJMtgYiS" opacity="1" fill="#ffffff" fill-opacity="1"></use><g><use xlink:href="#b3RJMtgYiS" opacity="1" fill-opacity="0" stroke="#000000" stroke-width="0.21" stroke-opacity="0"></use></g></g><g><use xlink:href="#bbde5vpu0" opacity="1" fill="#ffffff" fill-opacity="1"></use><g><use xlink:href="#bbde5vpu0" opacity="1" fill-opacity="0" stroke="#000000" stroke-width="0.21" stroke-opacity="0"></use></g></g><g><use xlink:href="#b4TWNHvIOb" opacity="1" fill="#ffffff" fill-opacity="1"></use><g><use xlink:href="#b4TWNHvIOb" opacity="1" fill-opacity="0" stroke="#000000" stroke-width="0.21" stroke-opacity="0"></use></g></g><g><use xlink:href="#bdLYAaZTM" opacity="1" fill="#ffffff" fill-opacity="1"></use><g><use xlink:href="#bdLYAaZTM" opacity="1" fill-opacity="0" stroke="#000000" stroke-width="0.21" stroke-opacity="0"></use></g></g><g><use xlink:href="#a9KWi5EgC" opacity="1" fill="#ffffff" fill-opacity="1"></use><g><use xlink:href="#a9KWi5EgC" opacity="1" fill-opacity="0" stroke="#000000" stroke-width="0.21" stroke-opacity="0"></use></g></g><g><use xlink:href="#bXC6gLy5w" opacity="1" fill="#ffffff" fill-opacity="1"></use><g><use xlink:href="#bXC6gLy5w" opacity="1" fill-opacity="0" stroke="#000000" stroke-width="0.21" stroke-opacity="0"></use></g></g></g></g></svg>